<mxfile host="app.diagrams.net" modified="2022-11-14T20:08:37.727Z" agent="5.0 (Windows NT 10.0; Win64; x64) AppleWebKit/537.36 (KHTML, like Gecko) Chrome/105.0.0.0 Safari/537.36 OPR/91.0.4516.106" etag="45lz_2ScXYRA8HMTdI6v" version="20.5.3" type="github">
  <diagram id="I6XM2j5greqEby50LAjm" name="Page-1">
    <mxGraphModel dx="1381" dy="764" grid="1" gridSize="10" guides="1" tooltips="1" connect="1" arrows="1" fold="1" page="1" pageScale="1" pageWidth="827" pageHeight="1169" math="0" shadow="0">
      <root>
        <mxCell id="0" />
        <mxCell id="1" parent="0" />
        <mxCell id="x5k6ogktIe7jjmOTtnob-1" value="&lt;p style=&quot;margin:0px;margin-top:4px;text-align:center;&quot;&gt;&lt;b&gt;Message&lt;/b&gt;&lt;/p&gt;&lt;hr size=&quot;1&quot;&gt;&lt;div style=&quot;height:2px;&quot;&gt;&lt;/div&gt;" style="verticalAlign=top;align=left;overflow=fill;fontSize=12;fontFamily=Helvetica;html=1;fillColor=#dae8fc;strokeColor=#6c8ebf;" parent="1" vertex="1">
          <mxGeometry x="990" y="110" width="620" height="570" as="geometry" />
        </mxCell>
        <mxCell id="1-j21piD-MwdcyqxMTBC-3" value="&lt;p style=&quot;margin:0px;margin-top:4px;text-align:center;&quot;&gt;&lt;b&gt;Network Management&lt;/b&gt;&lt;/p&gt;&lt;hr size=&quot;1&quot;&gt;&lt;div style=&quot;height:2px;&quot;&gt;&lt;/div&gt;" style="verticalAlign=top;align=left;overflow=fill;fontSize=12;fontFamily=Helvetica;html=1;fillColor=#dae8fc;strokeColor=#6c8ebf;" parent="1" vertex="1">
          <mxGeometry x="170" y="110" width="550" height="340" as="geometry" />
        </mxCell>
        <mxCell id="1-j21piD-MwdcyqxMTBC-4" value="" style="rounded=0;whiteSpace=wrap;html=1;" parent="1" vertex="1">
          <mxGeometry x="160" y="205" width="20" height="20" as="geometry" />
        </mxCell>
        <mxCell id="1-j21piD-MwdcyqxMTBC-5" value="Network" style="ellipse;shape=umlEntity;whiteSpace=wrap;html=1;fillColor=#CCFFCC;" parent="1" vertex="1">
          <mxGeometry x="70" y="190" width="50" height="50" as="geometry" />
        </mxCell>
        <mxCell id="1-j21piD-MwdcyqxMTBC-6" value="" style="endArrow=classic;html=1;rounded=0;exitX=1;exitY=0.5;exitDx=0;exitDy=0;entryX=0;entryY=0.5;entryDx=0;entryDy=0;" parent="1" source="1-j21piD-MwdcyqxMTBC-5" target="1-j21piD-MwdcyqxMTBC-4" edge="1">
          <mxGeometry width="50" height="50" relative="1" as="geometry">
            <mxPoint x="390" y="340" as="sourcePoint" />
            <mxPoint x="440" y="290" as="targetPoint" />
          </mxGeometry>
        </mxCell>
        <mxCell id="1-j21piD-MwdcyqxMTBC-7" value="Network Interface" style="text;html=1;align=center;verticalAlign=middle;resizable=0;points=[];autosize=1;strokeColor=none;fillColor=none;" parent="1" vertex="1">
          <mxGeometry x="110" y="170" width="120" height="30" as="geometry" />
        </mxCell>
        <mxCell id="1-j21piD-MwdcyqxMTBC-10" value="&lt;p style=&quot;margin:0px;margin-top:4px;text-align:center;&quot;&gt;&lt;b&gt;Network Receiver&lt;/b&gt;&lt;/p&gt;&lt;hr size=&quot;1&quot;&gt;&lt;div style=&quot;height:2px;&quot;&gt;&lt;/div&gt;" style="verticalAlign=top;align=left;overflow=fill;fontSize=12;fontFamily=Helvetica;html=1;fillColor=#66B2FF;" parent="1" vertex="1">
          <mxGeometry x="310" y="140" width="260" height="130" as="geometry" />
        </mxCell>
        <mxCell id="1-j21piD-MwdcyqxMTBC-12" value="Forward the message to&amp;nbsp;&lt;br&gt;a handler" style="html=1;fillColor=#99CCFF;" parent="1" vertex="1">
          <mxGeometry x="355" y="185" width="180" height="60" as="geometry" />
        </mxCell>
        <mxCell id="1-j21piD-MwdcyqxMTBC-15" value="" style="endArrow=classic;html=1;rounded=0;exitX=1;exitY=0.5;exitDx=0;exitDy=0;entryX=0;entryY=0.5;entryDx=0;entryDy=0;" parent="1" source="1-j21piD-MwdcyqxMTBC-4" target="1-j21piD-MwdcyqxMTBC-12" edge="1">
          <mxGeometry width="50" height="50" relative="1" as="geometry">
            <mxPoint x="320" y="215" as="sourcePoint" />
            <mxPoint x="440" y="280" as="targetPoint" />
          </mxGeometry>
        </mxCell>
        <mxCell id="1-j21piD-MwdcyqxMTBC-19" value="" style="whiteSpace=wrap;html=1;aspect=fixed;" parent="1" vertex="1">
          <mxGeometry x="710" y="205" width="20" height="20" as="geometry" />
        </mxCell>
        <mxCell id="1-j21piD-MwdcyqxMTBC-20" value="" style="endArrow=classic;html=1;rounded=0;entryX=0;entryY=0.5;entryDx=0;entryDy=0;exitX=1;exitY=0.5;exitDx=0;exitDy=0;" parent="1" source="1-j21piD-MwdcyqxMTBC-12" target="1-j21piD-MwdcyqxMTBC-19" edge="1">
          <mxGeometry width="50" height="50" relative="1" as="geometry">
            <mxPoint x="580" y="215" as="sourcePoint" />
            <mxPoint x="440" y="280" as="targetPoint" />
          </mxGeometry>
        </mxCell>
        <mxCell id="1-j21piD-MwdcyqxMTBC-21" value="Message Interface" style="text;html=1;strokeColor=none;fillColor=none;align=center;verticalAlign=middle;whiteSpace=wrap;rounded=0;" parent="1" vertex="1">
          <mxGeometry x="740" y="175" width="60" height="30" as="geometry" />
        </mxCell>
        <mxCell id="1-j21piD-MwdcyqxMTBC-24" value="&lt;p style=&quot;margin:0px;margin-top:4px;text-align:center;&quot;&gt;&lt;b&gt;Network Sender&lt;/b&gt;&lt;/p&gt;&lt;hr size=&quot;1&quot;&gt;&lt;div style=&quot;height:2px;&quot;&gt;&lt;/div&gt;" style="verticalAlign=top;align=left;overflow=fill;fontSize=12;fontFamily=Helvetica;html=1;fillColor=#66B2FF;" parent="1" vertex="1">
          <mxGeometry x="310" y="300" width="260" height="130" as="geometry" />
        </mxCell>
        <mxCell id="1-j21piD-MwdcyqxMTBC-27" value="" style="rounded=0;whiteSpace=wrap;html=1;" parent="1" vertex="1">
          <mxGeometry x="160" y="370" width="20" height="20" as="geometry" />
        </mxCell>
        <mxCell id="1-j21piD-MwdcyqxMTBC-28" value="Send the message on&amp;nbsp;&lt;br&gt;the Network" style="html=1;fillColor=#99CCFF;" parent="1" vertex="1">
          <mxGeometry x="350" y="350" width="180" height="60" as="geometry" />
        </mxCell>
        <mxCell id="1-j21piD-MwdcyqxMTBC-33" value="Network Interface" style="text;html=1;align=center;verticalAlign=middle;resizable=0;points=[];autosize=1;strokeColor=none;fillColor=none;" parent="1" vertex="1">
          <mxGeometry x="110" y="335" width="120" height="30" as="geometry" />
        </mxCell>
        <mxCell id="x5k6ogktIe7jjmOTtnob-2" value="&lt;p style=&quot;margin:0px;margin-top:4px;text-align:center;&quot;&gt;&lt;b&gt;Sending Message&lt;/b&gt;&lt;br&gt;&lt;/p&gt;&lt;hr size=&quot;1&quot;&gt;&lt;div style=&quot;height:2px;&quot;&gt;&lt;/div&gt;" style="verticalAlign=top;align=left;overflow=fill;fontSize=12;fontFamily=Helvetica;html=1;fillColor=#66B2FF;" parent="1" vertex="1">
          <mxGeometry x="1090" y="490" width="420" height="175" as="geometry" />
        </mxCell>
        <mxCell id="x5k6ogktIe7jjmOTtnob-3" value="" style="whiteSpace=wrap;html=1;aspect=fixed;" parent="1" vertex="1">
          <mxGeometry x="980" y="500" width="20" height="20" as="geometry" />
        </mxCell>
        <mxCell id="x5k6ogktIe7jjmOTtnob-4" value="&lt;p style=&quot;margin:0px;margin-top:4px;text-align:center;&quot;&gt;&lt;b&gt;Receiving Message&lt;/b&gt;&lt;br&gt;&lt;/p&gt;&lt;hr size=&quot;1&quot;&gt;&lt;div style=&quot;height:2px;&quot;&gt;&lt;/div&gt;" style="verticalAlign=top;align=left;overflow=fill;fontSize=12;fontFamily=Helvetica;html=1;fillColor=#66B2FF;" parent="1" vertex="1">
          <mxGeometry x="1090" y="140" width="420" height="320" as="geometry" />
        </mxCell>
        <mxCell id="x5k6ogktIe7jjmOTtnob-6" value="" style="whiteSpace=wrap;html=1;aspect=fixed;" parent="1" vertex="1">
          <mxGeometry x="1600" y="205" width="20" height="20" as="geometry" />
        </mxCell>
        <mxCell id="x5k6ogktIe7jjmOTtnob-8" value="&lt;p style=&quot;margin:0px;margin-top:4px;text-align:center;&quot;&gt;&lt;b&gt;Database Manager&lt;br&gt;&lt;/b&gt;&lt;/p&gt;&lt;hr size=&quot;1&quot;&gt;&lt;div style=&quot;height:2px;&quot;&gt;&lt;/div&gt;" style="verticalAlign=top;align=left;overflow=fill;fontSize=12;fontFamily=Helvetica;html=1;fillColor=#dae8fc;strokeColor=#6c8ebf;" parent="1" vertex="1">
          <mxGeometry x="1760" y="130" width="230" height="250" as="geometry" />
        </mxCell>
        <mxCell id="H-hbhCYi5M6MQTkAYYM1-2" value="&lt;p style=&quot;margin:0px;margin-top:4px;text-align:center;&quot;&gt;&lt;b&gt;Saving Message&lt;/b&gt;&lt;/p&gt;&lt;hr size=&quot;1&quot;&gt;&lt;div style=&quot;height:2px;&quot;&gt;&lt;/div&gt;" style="verticalAlign=top;align=left;overflow=fill;fontSize=12;fontFamily=Helvetica;html=1;fillColor=#3399FF;" parent="1" vertex="1">
          <mxGeometry x="1790" y="160" width="170" height="95" as="geometry" />
        </mxCell>
        <mxCell id="H-hbhCYi5M6MQTkAYYM1-3" value="" style="endArrow=classic;html=1;rounded=0;entryX=0;entryY=0.5;entryDx=0;entryDy=0;exitX=1;exitY=0.5;exitDx=0;exitDy=0;" parent="1" source="x5k6ogktIe7jjmOTtnob-6" target="H-hbhCYi5M6MQTkAYYM1-78" edge="1">
          <mxGeometry width="50" height="50" relative="1" as="geometry">
            <mxPoint x="1590" y="230" as="sourcePoint" />
            <mxPoint x="1750" y="215" as="targetPoint" />
          </mxGeometry>
        </mxCell>
        <mxCell id="H-hbhCYi5M6MQTkAYYM1-5" value="User" style="shape=umlActor;verticalLabelPosition=bottom;verticalAlign=top;html=1;" parent="1" vertex="1">
          <mxGeometry x="1740" y="570" width="30" height="60" as="geometry" />
        </mxCell>
        <mxCell id="H-hbhCYi5M6MQTkAYYM1-6" value="" style="endArrow=classic;html=1;rounded=0;exitX=1;exitY=0.5;exitDx=0;exitDy=0;startArrow=none;" parent="1" source="H-hbhCYi5M6MQTkAYYM1-7" edge="1">
          <mxGeometry width="50" height="50" relative="1" as="geometry">
            <mxPoint x="1271" y="245" as="sourcePoint" />
            <mxPoint x="1740" y="610" as="targetPoint" />
            <Array as="points">
              <mxPoint x="1710" y="280" />
              <mxPoint x="1710" y="610" />
            </Array>
          </mxGeometry>
        </mxCell>
        <mxCell id="H-hbhCYi5M6MQTkAYYM1-9" value="GUI" style="text;html=1;align=center;verticalAlign=middle;resizable=0;points=[];autosize=1;strokeColor=none;fillColor=none;" parent="1" vertex="1">
          <mxGeometry x="1610" y="240" width="40" height="30" as="geometry" />
        </mxCell>
        <mxCell id="H-hbhCYi5M6MQTkAYYM1-10" value="" style="whiteSpace=wrap;html=1;aspect=fixed;" parent="1" vertex="1">
          <mxGeometry x="1600" y="335" width="20" height="20" as="geometry" />
        </mxCell>
        <mxCell id="H-hbhCYi5M6MQTkAYYM1-7" value="" style="whiteSpace=wrap;html=1;aspect=fixed;" parent="1" vertex="1">
          <mxGeometry x="1600" y="270" width="20" height="20" as="geometry" />
        </mxCell>
        <mxCell id="H-hbhCYi5M6MQTkAYYM1-13" value="" style="whiteSpace=wrap;html=1;aspect=fixed;" parent="1" vertex="1">
          <mxGeometry x="1595" y="620" width="20" height="20" as="geometry" />
        </mxCell>
        <mxCell id="H-hbhCYi5M6MQTkAYYM1-15" value="&lt;p style=&quot;margin:0px;margin-top:4px;text-align:center;&quot;&gt;&lt;b&gt;Thread Manager&lt;/b&gt;&lt;/p&gt;&lt;hr size=&quot;1&quot;&gt;&lt;div style=&quot;height:2px;&quot;&gt;&lt;/div&gt;" style="verticalAlign=top;align=left;overflow=fill;fontSize=12;fontFamily=Helvetica;html=1;fillColor=#dae8fc;strokeColor=#6c8ebf;" parent="1" vertex="1">
          <mxGeometry x="1190" y="730" width="260" height="310" as="geometry" />
        </mxCell>
        <mxCell id="H-hbhCYi5M6MQTkAYYM1-19" value="&lt;div&gt;Receive User &lt;br&gt;&lt;/div&gt;&lt;div&gt;Message&lt;/div&gt;" style="html=1;fillColor=#99CCFF;" parent="1" vertex="1">
          <mxGeometry x="1141" y="185" width="100" height="60" as="geometry" />
        </mxCell>
        <mxCell id="H-hbhCYi5M6MQTkAYYM1-21" value="&lt;div&gt;Sending message&lt;/div&gt;&lt;div&gt;to database&lt;br&gt;&lt;/div&gt;" style="html=1;fillColor=#99CCFF;" parent="1" vertex="1">
          <mxGeometry x="1300" y="190" width="110" height="50" as="geometry" />
        </mxCell>
        <mxCell id="H-hbhCYi5M6MQTkAYYM1-22" value="" style="endArrow=classic;html=1;rounded=0;exitX=1;exitY=0.5;exitDx=0;exitDy=0;entryX=0;entryY=0.5;entryDx=0;entryDy=0;" parent="1" source="H-hbhCYi5M6MQTkAYYM1-19" target="H-hbhCYi5M6MQTkAYYM1-21" edge="1">
          <mxGeometry width="50" height="50" relative="1" as="geometry">
            <mxPoint x="1220" y="440" as="sourcePoint" />
            <mxPoint x="1270" y="390" as="targetPoint" />
          </mxGeometry>
        </mxCell>
        <mxCell id="H-hbhCYi5M6MQTkAYYM1-23" value="&lt;div&gt;Sending message&lt;/div&gt;&lt;div&gt;to User&lt;br&gt;&lt;/div&gt;" style="html=1;fillColor=#99CCFF;" parent="1" vertex="1">
          <mxGeometry x="1300" y="255" width="110" height="50" as="geometry" />
        </mxCell>
        <mxCell id="H-hbhCYi5M6MQTkAYYM1-24" value="" style="endArrow=classic;html=1;rounded=0;exitX=1;exitY=0.5;exitDx=0;exitDy=0;entryX=0;entryY=0.5;entryDx=0;entryDy=0;" parent="1" source="H-hbhCYi5M6MQTkAYYM1-19" target="H-hbhCYi5M6MQTkAYYM1-23" edge="1">
          <mxGeometry width="50" height="50" relative="1" as="geometry">
            <mxPoint x="1220" y="440" as="sourcePoint" />
            <mxPoint x="1270" y="390" as="targetPoint" />
            <Array as="points">
              <mxPoint x="1270" y="215" />
              <mxPoint x="1270" y="280" />
            </Array>
          </mxGeometry>
        </mxCell>
        <mxCell id="H-hbhCYi5M6MQTkAYYM1-25" value="" style="endArrow=classic;html=1;rounded=0;entryX=0;entryY=0.25;entryDx=0;entryDy=0;exitX=1;exitY=0.5;exitDx=0;exitDy=0;" parent="1" source="H-hbhCYi5M6MQTkAYYM1-21" target="x5k6ogktIe7jjmOTtnob-6" edge="1">
          <mxGeometry width="50" height="50" relative="1" as="geometry">
            <mxPoint x="1410" y="205" as="sourcePoint" />
            <mxPoint x="1270" y="390" as="targetPoint" />
            <Array as="points">
              <mxPoint x="1460" y="210" />
            </Array>
          </mxGeometry>
        </mxCell>
        <mxCell id="H-hbhCYi5M6MQTkAYYM1-26" value="&lt;div&gt;Database&lt;/div&gt;&lt;div&gt;Manager&lt;/div&gt;&lt;div&gt;Interface&lt;br&gt;&lt;/div&gt;" style="text;html=1;align=center;verticalAlign=middle;resizable=0;points=[];autosize=1;strokeColor=none;fillColor=none;" parent="1" vertex="1">
          <mxGeometry x="1620" y="155" width="70" height="60" as="geometry" />
        </mxCell>
        <mxCell id="H-hbhCYi5M6MQTkAYYM1-33" value="" style="endArrow=classic;html=1;rounded=0;exitX=1;exitY=0.5;exitDx=0;exitDy=0;entryX=0;entryY=0.5;entryDx=0;entryDy=0;" parent="1" source="H-hbhCYi5M6MQTkAYYM1-23" target="H-hbhCYi5M6MQTkAYYM1-7" edge="1">
          <mxGeometry width="50" height="50" relative="1" as="geometry">
            <mxPoint x="1220" y="500" as="sourcePoint" />
            <mxPoint x="1270" y="450" as="targetPoint" />
          </mxGeometry>
        </mxCell>
        <mxCell id="H-hbhCYi5M6MQTkAYYM1-36" value="&lt;div&gt;Receive new&lt;/div&gt;&lt;div&gt;chat connetion&lt;br&gt;&lt;/div&gt;" style="html=1;fillColor=#99CCFF;" parent="1" vertex="1">
          <mxGeometry x="1141" y="320" width="110" height="50" as="geometry" />
        </mxCell>
        <mxCell id="H-hbhCYi5M6MQTkAYYM1-40" value="" style="endArrow=classic;html=1;rounded=0;exitX=1;exitY=0.5;exitDx=0;exitDy=0;entryX=0;entryY=0.5;entryDx=0;entryDy=0;" parent="1" source="1-j21piD-MwdcyqxMTBC-19" target="H-hbhCYi5M6MQTkAYYM1-36" edge="1">
          <mxGeometry width="50" height="50" relative="1" as="geometry">
            <mxPoint x="1100" y="215" as="sourcePoint" />
            <mxPoint x="1120" y="480" as="targetPoint" />
            <Array as="points">
              <mxPoint x="1110" y="215" />
              <mxPoint x="1110" y="345" />
            </Array>
          </mxGeometry>
        </mxCell>
        <mxCell id="H-hbhCYi5M6MQTkAYYM1-43" value="&lt;p style=&quot;margin:0px;margin-top:4px;text-align:center;&quot;&gt;&lt;b&gt;Thread Creator&lt;/b&gt;&lt;br&gt;&lt;/p&gt;&lt;hr size=&quot;1&quot;&gt;&lt;div style=&quot;height:2px;&quot;&gt;&lt;/div&gt;" style="verticalAlign=top;align=left;overflow=fill;fontSize=12;fontFamily=Helvetica;html=1;fillColor=#66B2FF;" parent="1" vertex="1">
          <mxGeometry x="1220" y="775" width="200" height="110" as="geometry" />
        </mxCell>
        <mxCell id="H-hbhCYi5M6MQTkAYYM1-18" value="&lt;div&gt;Create New &lt;br&gt;&lt;/div&gt;&lt;div&gt;Thread&lt;br&gt;&lt;/div&gt;" style="html=1;fillColor=#99CCFF;gradientColor=none;" parent="1" vertex="1">
          <mxGeometry x="1265" y="815" width="110" height="50" as="geometry" />
        </mxCell>
        <mxCell id="H-hbhCYi5M6MQTkAYYM1-52" value="" style="endArrow=classic;html=1;rounded=0;exitX=1;exitY=0.5;exitDx=0;exitDy=0;entryX=0;entryY=0.5;entryDx=0;entryDy=0;" parent="1" source="H-hbhCYi5M6MQTkAYYM1-36" target="H-hbhCYi5M6MQTkAYYM1-10" edge="1">
          <mxGeometry width="50" height="50" relative="1" as="geometry">
            <mxPoint x="1410" y="530" as="sourcePoint" />
            <mxPoint x="1460" y="480" as="targetPoint" />
          </mxGeometry>
        </mxCell>
        <mxCell id="H-hbhCYi5M6MQTkAYYM1-53" value="&lt;div&gt;Thread&lt;/div&gt;&lt;div&gt;Manager&lt;/div&gt;&lt;div&gt;Interface&lt;br&gt;&lt;/div&gt;" style="text;html=1;strokeColor=none;fillColor=none;align=center;verticalAlign=middle;whiteSpace=wrap;rounded=0;" parent="1" vertex="1">
          <mxGeometry x="1610" y="460" width="60" height="30" as="geometry" />
        </mxCell>
        <mxCell id="H-hbhCYi5M6MQTkAYYM1-59" value="" style="endArrow=classic;html=1;rounded=0;entryX=1;entryY=0.5;entryDx=0;entryDy=0;" parent="1" target="H-hbhCYi5M6MQTkAYYM1-13" edge="1">
          <mxGeometry width="50" height="50" relative="1" as="geometry">
            <mxPoint x="1730" y="630" as="sourcePoint" />
            <mxPoint x="1420" y="420" as="targetPoint" />
            <Array as="points">
              <mxPoint x="1690" y="630" />
            </Array>
          </mxGeometry>
        </mxCell>
        <mxCell id="H-hbhCYi5M6MQTkAYYM1-60" value="&lt;div&gt;Create New&lt;/div&gt;&lt;div&gt;User Message&lt;br&gt;&lt;/div&gt;" style="html=1;fillColor=#99CCFF;" parent="1" vertex="1">
          <mxGeometry x="1360" y="534" width="110" height="50" as="geometry" />
        </mxCell>
        <mxCell id="H-hbhCYi5M6MQTkAYYM1-61" value="&lt;div&gt;Create New&lt;/div&gt;&lt;div&gt;Control Message&lt;br&gt;&lt;/div&gt;" style="html=1;fillColor=#99CCFF;" parent="1" vertex="1">
          <mxGeometry x="1360" y="600" width="110" height="50" as="geometry" />
        </mxCell>
        <mxCell id="H-hbhCYi5M6MQTkAYYM1-63" value="&lt;div&gt;Send the message&lt;/div&gt;&lt;div&gt;to the network&lt;br&gt;&lt;/div&gt;" style="html=1;fillColor=#99CCFF;" parent="1" vertex="1">
          <mxGeometry x="1141" y="600" width="110" height="50" as="geometry" />
        </mxCell>
        <mxCell id="H-hbhCYi5M6MQTkAYYM1-67" value="" style="endArrow=classic;html=1;rounded=0;exitX=0;exitY=0.5;exitDx=0;exitDy=0;entryX=1;entryY=0.5;entryDx=0;entryDy=0;" parent="1" source="H-hbhCYi5M6MQTkAYYM1-63" target="x5k6ogktIe7jjmOTtnob-3" edge="1">
          <mxGeometry width="50" height="50" relative="1" as="geometry">
            <mxPoint x="1370" y="380" as="sourcePoint" />
            <mxPoint x="1420" y="330" as="targetPoint" />
            <Array as="points">
              <mxPoint x="1030" y="625" />
              <mxPoint x="1030" y="510" />
            </Array>
          </mxGeometry>
        </mxCell>
        <mxCell id="H-hbhCYi5M6MQTkAYYM1-68" value="" style="endArrow=classic;html=1;rounded=0;exitX=0;exitY=0.5;exitDx=0;exitDy=0;entryX=1;entryY=0.5;entryDx=0;entryDy=0;" parent="1" source="x5k6ogktIe7jjmOTtnob-3" target="1-j21piD-MwdcyqxMTBC-28" edge="1">
          <mxGeometry width="50" height="50" relative="1" as="geometry">
            <mxPoint x="670" y="380" as="sourcePoint" />
            <mxPoint x="730" y="380" as="targetPoint" />
            <Array as="points">
              <mxPoint x="840" y="510" />
              <mxPoint x="840" y="380" />
            </Array>
          </mxGeometry>
        </mxCell>
        <mxCell id="H-hbhCYi5M6MQTkAYYM1-69" value="Message Interface" style="text;html=1;strokeColor=none;fillColor=none;align=center;verticalAlign=middle;whiteSpace=wrap;rounded=0;" parent="1" vertex="1">
          <mxGeometry x="930" y="470" width="60" height="30" as="geometry" />
        </mxCell>
        <mxCell id="H-hbhCYi5M6MQTkAYYM1-72" value="" style="endArrow=classic;html=1;rounded=0;exitX=0;exitY=0.5;exitDx=0;exitDy=0;entryX=1;entryY=0.5;entryDx=0;entryDy=0;" parent="1" source="1-j21piD-MwdcyqxMTBC-28" target="1-j21piD-MwdcyqxMTBC-27" edge="1">
          <mxGeometry width="50" height="50" relative="1" as="geometry">
            <mxPoint x="670" y="380" as="sourcePoint" />
            <mxPoint x="720" y="330" as="targetPoint" />
          </mxGeometry>
        </mxCell>
        <mxCell id="H-hbhCYi5M6MQTkAYYM1-73" value="" style="endArrow=classic;html=1;rounded=0;exitX=0;exitY=0.5;exitDx=0;exitDy=0;entryX=0.5;entryY=1;entryDx=0;entryDy=0;" parent="1" source="1-j21piD-MwdcyqxMTBC-27" target="1-j21piD-MwdcyqxMTBC-5" edge="1">
          <mxGeometry width="50" height="50" relative="1" as="geometry">
            <mxPoint x="670" y="380" as="sourcePoint" />
            <mxPoint x="120" y="380" as="targetPoint" />
            <Array as="points">
              <mxPoint x="95" y="380" />
            </Array>
          </mxGeometry>
        </mxCell>
        <mxCell id="H-hbhCYi5M6MQTkAYYM1-75" value="GUI" style="text;html=1;align=center;verticalAlign=middle;resizable=0;points=[];autosize=1;strokeColor=none;fillColor=none;rotation=0;" parent="1" vertex="1">
          <mxGeometry x="1575" y="600" width="40" height="30" as="geometry" />
        </mxCell>
        <mxCell id="H-hbhCYi5M6MQTkAYYM1-77" value="DataBase" style="ellipse;shape=umlEntity;whiteSpace=wrap;html=1;fillColor=#CCFFCC;" parent="1" vertex="1">
          <mxGeometry x="2110" y="185" width="60" height="60" as="geometry" />
        </mxCell>
        <mxCell id="H-hbhCYi5M6MQTkAYYM1-78" value="&lt;div&gt;Insert data in&lt;/div&gt;&lt;div&gt;the table&lt;br&gt;&lt;/div&gt;" style="html=1;fillColor=#99CCFF;" parent="1" vertex="1">
          <mxGeometry x="1820" y="190" width="110" height="50" as="geometry" />
        </mxCell>
        <mxCell id="H-hbhCYi5M6MQTkAYYM1-80" value="" style="endArrow=classic;html=1;rounded=0;exitX=1;exitY=0.5;exitDx=0;exitDy=0;entryX=0;entryY=0.5;entryDx=0;entryDy=0;" parent="1" source="H-hbhCYi5M6MQTkAYYM1-78" target="H-hbhCYi5M6MQTkAYYM1-81" edge="1">
          <mxGeometry width="50" height="50" relative="1" as="geometry">
            <mxPoint x="2080" y="440" as="sourcePoint" />
            <mxPoint x="2130" y="390" as="targetPoint" />
          </mxGeometry>
        </mxCell>
        <mxCell id="H-hbhCYi5M6MQTkAYYM1-81" value="" style="whiteSpace=wrap;html=1;aspect=fixed;" parent="1" vertex="1">
          <mxGeometry x="1980" y="205" width="20" height="20" as="geometry" />
        </mxCell>
        <mxCell id="H-hbhCYi5M6MQTkAYYM1-82" value="" style="endArrow=classic;html=1;rounded=0;exitX=1;exitY=0.5;exitDx=0;exitDy=0;entryX=0;entryY=0.5;entryDx=0;entryDy=0;" parent="1" source="H-hbhCYi5M6MQTkAYYM1-81" target="H-hbhCYi5M6MQTkAYYM1-77" edge="1">
          <mxGeometry width="50" height="50" relative="1" as="geometry">
            <mxPoint x="2080" y="440" as="sourcePoint" />
            <mxPoint x="2130" y="390" as="targetPoint" />
          </mxGeometry>
        </mxCell>
        <mxCell id="H-hbhCYi5M6MQTkAYYM1-83" value="DataBase Interface" style="text;html=1;strokeColor=none;fillColor=none;align=center;verticalAlign=middle;whiteSpace=wrap;rounded=0;" parent="1" vertex="1">
          <mxGeometry x="1990" y="170" width="60" height="30" as="geometry" />
        </mxCell>
        <mxCell id="H-hbhCYi5M6MQTkAYYM1-12" value="" style="endArrow=classic;html=1;rounded=0;exitX=1;exitY=0.5;exitDx=0;exitDy=0;entryX=0;entryY=0.5;entryDx=0;entryDy=0;" parent="1" source="H-hbhCYi5M6MQTkAYYM1-10" target="H-hbhCYi5M6MQTkAYYM1-18" edge="1">
          <mxGeometry width="50" height="50" relative="1" as="geometry">
            <mxPoint x="2000" y="610" as="sourcePoint" />
            <mxPoint x="1429.9999999999995" y="840" as="targetPoint" />
            <Array as="points">
              <mxPoint x="1670" y="345" />
              <mxPoint x="1670" y="700" />
              <mxPoint x="1110" y="700" />
              <mxPoint x="1110" y="840" />
            </Array>
          </mxGeometry>
        </mxCell>
        <mxCell id="1-j21piD-MwdcyqxMTBC-23" value="" style="endArrow=classic;html=1;rounded=0;exitX=1;exitY=0;exitDx=0;exitDy=0;" parent="1" source="1-j21piD-MwdcyqxMTBC-19" edge="1">
          <mxGeometry width="50" height="50" relative="1" as="geometry">
            <mxPoint x="390" y="330" as="sourcePoint" />
            <mxPoint x="1140" y="205" as="targetPoint" />
          </mxGeometry>
        </mxCell>
        <mxCell id="H-hbhCYi5M6MQTkAYYM1-91" value="&lt;div&gt;Receive end chat&lt;/div&gt;&lt;div&gt;message&lt;br&gt;&lt;/div&gt;" style="html=1;fillColor=#99CCFF;" parent="1" vertex="1">
          <mxGeometry x="1141" y="395" width="110" height="50" as="geometry" />
        </mxCell>
        <mxCell id="H-hbhCYi5M6MQTkAYYM1-92" value="" style="endArrow=classic;html=1;rounded=0;exitX=1;exitY=1;exitDx=0;exitDy=0;entryX=0;entryY=0.5;entryDx=0;entryDy=0;" parent="1" source="1-j21piD-MwdcyqxMTBC-19" target="H-hbhCYi5M6MQTkAYYM1-91" edge="1">
          <mxGeometry width="50" height="50" relative="1" as="geometry">
            <mxPoint x="1270" y="520" as="sourcePoint" />
            <mxPoint x="1320" y="470" as="targetPoint" />
            <Array as="points">
              <mxPoint x="950" y="225" />
              <mxPoint x="950" y="420" />
            </Array>
          </mxGeometry>
        </mxCell>
        <mxCell id="H-hbhCYi5M6MQTkAYYM1-93" value="&lt;p style=&quot;margin:0px;margin-top:4px;text-align:center;&quot;&gt;&lt;b&gt;Thread Destructor&lt;br&gt;&lt;/b&gt;&lt;/p&gt;&lt;hr size=&quot;1&quot;&gt;&lt;div style=&quot;height:2px;&quot;&gt;&lt;/div&gt;" style="verticalAlign=top;align=left;overflow=fill;fontSize=12;fontFamily=Helvetica;html=1;fillColor=#66B2FF;gradientColor=none;" parent="1" vertex="1">
          <mxGeometry x="1220" y="920" width="200" height="100" as="geometry" />
        </mxCell>
        <mxCell id="H-hbhCYi5M6MQTkAYYM1-90" value="Delete Thread" style="html=1;fillColor=#99CCFF;gradientColor=none;" parent="1" vertex="1">
          <mxGeometry x="1265" y="960" width="110" height="50" as="geometry" />
        </mxCell>
        <mxCell id="H-hbhCYi5M6MQTkAYYM1-96" value="" style="endArrow=classic;html=1;rounded=0;exitX=0;exitY=0.5;exitDx=0;exitDy=0;entryX=1;entryY=0.5;entryDx=0;entryDy=0;" parent="1" source="H-hbhCYi5M6MQTkAYYM1-13" target="H-hbhCYi5M6MQTkAYYM1-60" edge="1">
          <mxGeometry width="50" height="50" relative="1" as="geometry">
            <mxPoint x="1270" y="530" as="sourcePoint" />
            <mxPoint x="1320" y="480" as="targetPoint" />
            <Array as="points">
              <mxPoint x="1530" y="630" />
              <mxPoint x="1530" y="559" />
            </Array>
          </mxGeometry>
        </mxCell>
        <mxCell id="H-hbhCYi5M6MQTkAYYM1-97" value="" style="whiteSpace=wrap;html=1;aspect=fixed;" parent="1" vertex="1">
          <mxGeometry x="1600" y="500" width="20" height="20" as="geometry" />
        </mxCell>
        <mxCell id="H-hbhCYi5M6MQTkAYYM1-98" value="&lt;div&gt;Thread&lt;/div&gt;&lt;div&gt;Manager&lt;/div&gt;&lt;div&gt;Interface&lt;br&gt;&lt;/div&gt;" style="text;html=1;strokeColor=none;fillColor=none;align=center;verticalAlign=middle;whiteSpace=wrap;rounded=0;" parent="1" vertex="1">
          <mxGeometry x="1620" y="310" width="60" height="30" as="geometry" />
        </mxCell>
        <mxCell id="H-hbhCYi5M6MQTkAYYM1-99" value="" style="endArrow=classic;html=1;rounded=0;exitX=1;exitY=0.5;exitDx=0;exitDy=0;entryX=0;entryY=0.5;entryDx=0;entryDy=0;" parent="1" source="H-hbhCYi5M6MQTkAYYM1-91" target="H-hbhCYi5M6MQTkAYYM1-97" edge="1">
          <mxGeometry width="50" height="50" relative="1" as="geometry">
            <mxPoint x="1270" y="530" as="sourcePoint" />
            <mxPoint x="1320" y="480" as="targetPoint" />
            <Array as="points">
              <mxPoint x="1560" y="420" />
              <mxPoint x="1560" y="510" />
            </Array>
          </mxGeometry>
        </mxCell>
        <mxCell id="H-hbhCYi5M6MQTkAYYM1-101" value="" style="endArrow=classic;html=1;rounded=0;exitX=1;exitY=0.5;exitDx=0;exitDy=0;entryX=0;entryY=0.5;entryDx=0;entryDy=0;" parent="1" source="H-hbhCYi5M6MQTkAYYM1-97" target="H-hbhCYi5M6MQTkAYYM1-90" edge="1">
          <mxGeometry width="50" height="50" relative="1" as="geometry">
            <mxPoint x="1270" y="670" as="sourcePoint" />
            <mxPoint x="1320" y="620" as="targetPoint" />
            <Array as="points">
              <mxPoint x="1640" y="510" />
              <mxPoint x="1640" y="710" />
              <mxPoint x="1160" y="710" />
              <mxPoint x="1160" y="985" />
            </Array>
          </mxGeometry>
        </mxCell>
        <mxCell id="H-hbhCYi5M6MQTkAYYM1-102" value="&lt;p style=&quot;margin:0px;margin-top:4px;text-align:center;&quot;&gt;&lt;b&gt;Conversation&lt;/b&gt;&lt;/p&gt;&lt;hr size=&quot;1&quot;&gt;&lt;div style=&quot;height:2px;&quot;&gt;&lt;/div&gt;" style="verticalAlign=top;align=left;overflow=fill;fontSize=12;fontFamily=Helvetica;html=1;fillColor=#dae8fc;strokeColor=#6c8ebf;" parent="1" vertex="1">
          <mxGeometry x="1800" y="680" width="270" height="370" as="geometry" />
        </mxCell>
        <mxCell id="H-hbhCYi5M6MQTkAYYM1-103" value="&lt;p style=&quot;margin:0px;margin-top:4px;text-align:center;&quot;&gt;&lt;b&gt;Conversation Creation&lt;/b&gt;&lt;br&gt;&lt;/p&gt;&lt;hr size=&quot;1&quot;&gt;&lt;div style=&quot;height:2px;&quot;&gt;&lt;/div&gt;" style="verticalAlign=top;align=left;overflow=fill;fontSize=12;fontFamily=Helvetica;html=1;fillColor=#66B2FF;" parent="1" vertex="1">
          <mxGeometry x="1840" y="720" width="200" height="160" as="geometry" />
        </mxCell>
        <mxCell id="H-hbhCYi5M6MQTkAYYM1-104" value="&lt;p style=&quot;margin:0px;margin-top:4px;text-align:center;&quot;&gt;&lt;b&gt;Restaure Conversation&lt;br&gt;&lt;/b&gt;&lt;/p&gt;&lt;hr size=&quot;1&quot;&gt;&lt;div style=&quot;height:2px;&quot;&gt;&lt;/div&gt;" style="verticalAlign=top;align=left;overflow=fill;fontSize=12;fontFamily=Helvetica;html=1;fillColor=#3399FF;gradientColor=none;" parent="1" vertex="1">
          <mxGeometry x="1795" y="262.5" width="165" height="87.5" as="geometry" />
        </mxCell>
        <mxCell id="H-hbhCYi5M6MQTkAYYM1-106" value="" style="endArrow=classic;html=1;rounded=0;exitX=0.5;exitY=1;exitDx=0;exitDy=0;entryX=1;entryY=0.5;entryDx=0;entryDy=0;" parent="1" source="H-hbhCYi5M6MQTkAYYM1-77" target="5A0LNB3ysfZ-3Xa6dR4r-2" edge="1">
          <mxGeometry width="50" height="50" relative="1" as="geometry">
            <mxPoint x="1510" y="620" as="sourcePoint" />
            <mxPoint x="2080" y="306" as="targetPoint" />
            <Array as="points">
              <mxPoint x="2140" y="315" />
            </Array>
          </mxGeometry>
        </mxCell>
        <mxCell id="H-hbhCYi5M6MQTkAYYM1-107" value="&lt;div&gt;Create New &lt;br&gt;&lt;/div&gt;&lt;div&gt;Conversation&lt;br&gt;&lt;/div&gt;" style="html=1;fillColor=#99CCFF;gradientColor=none;" parent="1" vertex="1">
          <mxGeometry x="1880" y="750" width="110" height="50" as="geometry" />
        </mxCell>
        <mxCell id="H-hbhCYi5M6MQTkAYYM1-108" value="&lt;div&gt;Import&lt;/div&gt;&lt;div&gt;old messages&lt;br&gt;&lt;/div&gt;" style="html=1;fillColor=#99CCFF;gradientColor=none;" parent="1" vertex="1">
          <mxGeometry x="1885" y="815" width="110" height="50" as="geometry" />
        </mxCell>
        <mxCell id="5A0LNB3ysfZ-3Xa6dR4r-1" value="Restaure &lt;br&gt;conversation" style="html=1;fillColor=#99CCFF;gradientColor=none;" vertex="1" parent="1">
          <mxGeometry x="1822.5" y="290" width="110" height="50" as="geometry" />
        </mxCell>
        <mxCell id="5A0LNB3ysfZ-3Xa6dR4r-2" value="" style="whiteSpace=wrap;html=1;aspect=fixed;" vertex="1" parent="1">
          <mxGeometry x="1980" y="305" width="20" height="20" as="geometry" />
        </mxCell>
        <mxCell id="5A0LNB3ysfZ-3Xa6dR4r-6" value="DataBase Interface" style="text;html=1;strokeColor=none;fillColor=none;align=center;verticalAlign=middle;whiteSpace=wrap;rounded=0;" vertex="1" parent="1">
          <mxGeometry x="2000" y="325" width="60" height="40" as="geometry" />
        </mxCell>
        <mxCell id="5A0LNB3ysfZ-3Xa6dR4r-7" value="" style="endArrow=classic;html=1;rounded=0;entryX=1;entryY=0.5;entryDx=0;entryDy=0;exitX=0;exitY=0.5;exitDx=0;exitDy=0;" edge="1" parent="1" source="5A0LNB3ysfZ-3Xa6dR4r-2" target="5A0LNB3ysfZ-3Xa6dR4r-1">
          <mxGeometry width="50" height="50" relative="1" as="geometry">
            <mxPoint x="1990" y="320" as="sourcePoint" />
            <mxPoint x="1740" y="470" as="targetPoint" />
          </mxGeometry>
        </mxCell>
        <mxCell id="5A0LNB3ysfZ-3Xa6dR4r-9" value="" style="whiteSpace=wrap;html=1;aspect=fixed;" vertex="1" parent="1">
          <mxGeometry x="1867.5" y="370" width="20" height="20" as="geometry" />
        </mxCell>
        <mxCell id="5A0LNB3ysfZ-3Xa6dR4r-10" value="" style="endArrow=classic;html=1;rounded=0;exitX=0.5;exitY=1;exitDx=0;exitDy=0;entryX=0.5;entryY=0;entryDx=0;entryDy=0;" edge="1" parent="1" source="H-hbhCYi5M6MQTkAYYM1-104" target="5A0LNB3ysfZ-3Xa6dR4r-9">
          <mxGeometry width="50" height="50" relative="1" as="geometry">
            <mxPoint x="1690" y="520" as="sourcePoint" />
            <mxPoint x="1740" y="470" as="targetPoint" />
          </mxGeometry>
        </mxCell>
        <mxCell id="5A0LNB3ysfZ-3Xa6dR4r-11" value="Conversation&lt;br&gt;Interface" style="text;html=1;strokeColor=none;fillColor=none;align=center;verticalAlign=middle;whiteSpace=wrap;rounded=0;" vertex="1" parent="1">
          <mxGeometry x="1900" y="380" width="60" height="40" as="geometry" />
        </mxCell>
        <mxCell id="5A0LNB3ysfZ-3Xa6dR4r-12" value="" style="endArrow=classic;html=1;rounded=0;exitX=0.5;exitY=1;exitDx=0;exitDy=0;entryX=1;entryY=0.5;entryDx=0;entryDy=0;" edge="1" parent="1" source="5A0LNB3ysfZ-3Xa6dR4r-9" target="H-hbhCYi5M6MQTkAYYM1-108">
          <mxGeometry width="50" height="50" relative="1" as="geometry">
            <mxPoint x="1690" y="520" as="sourcePoint" />
            <mxPoint x="1740" y="470" as="targetPoint" />
            <Array as="points">
              <mxPoint x="1880" y="520" />
              <mxPoint x="2200" y="520" />
              <mxPoint x="2200" y="840" />
            </Array>
          </mxGeometry>
        </mxCell>
        <mxCell id="5A0LNB3ysfZ-3Xa6dR4r-13" value="&lt;p style=&quot;margin:0px;margin-top:4px;text-align:center;&quot;&gt;&lt;b&gt;Conversation Destructor&lt;/b&gt;&lt;br&gt;&lt;/p&gt;&lt;hr size=&quot;1&quot;&gt;&lt;div style=&quot;height:2px;&quot;&gt;&lt;/div&gt;" style="verticalAlign=top;align=left;overflow=fill;fontSize=12;fontFamily=Helvetica;html=1;fillColor=#66B2FF;" vertex="1" parent="1">
          <mxGeometry x="1855" y="920" width="170" height="110" as="geometry" />
        </mxCell>
        <mxCell id="5A0LNB3ysfZ-3Xa6dR4r-14" value="Close&lt;br&gt;Conversation" style="html=1;fillColor=#99CCFF;gradientColor=none;" vertex="1" parent="1">
          <mxGeometry x="1890" y="960" width="110" height="50" as="geometry" />
        </mxCell>
        <mxCell id="5A0LNB3ysfZ-3Xa6dR4r-16" value="" style="whiteSpace=wrap;html=1;aspect=fixed;" vertex="1" parent="1">
          <mxGeometry x="1440" y="975" width="20" height="20" as="geometry" />
        </mxCell>
        <mxCell id="5A0LNB3ysfZ-3Xa6dR4r-17" value="" style="whiteSpace=wrap;html=1;aspect=fixed;" vertex="1" parent="1">
          <mxGeometry x="1440" y="830" width="20" height="20" as="geometry" />
        </mxCell>
        <mxCell id="5A0LNB3ysfZ-3Xa6dR4r-23" value="" style="endArrow=classic;html=1;rounded=0;exitX=1;exitY=0.5;exitDx=0;exitDy=0;entryX=0;entryY=0.5;entryDx=0;entryDy=0;" edge="1" parent="1" source="H-hbhCYi5M6MQTkAYYM1-18" target="5A0LNB3ysfZ-3Xa6dR4r-17">
          <mxGeometry width="50" height="50" relative="1" as="geometry">
            <mxPoint x="1690" y="720" as="sourcePoint" />
            <mxPoint x="1740" y="670" as="targetPoint" />
          </mxGeometry>
        </mxCell>
        <mxCell id="5A0LNB3ysfZ-3Xa6dR4r-24" value="" style="endArrow=classic;html=1;rounded=0;exitX=1;exitY=0.5;exitDx=0;exitDy=0;entryX=0;entryY=0.5;entryDx=0;entryDy=0;" edge="1" parent="1" source="5A0LNB3ysfZ-3Xa6dR4r-17" target="H-hbhCYi5M6MQTkAYYM1-107">
          <mxGeometry width="50" height="50" relative="1" as="geometry">
            <mxPoint x="1690" y="720" as="sourcePoint" />
            <mxPoint x="1740" y="670" as="targetPoint" />
            <Array as="points">
              <mxPoint x="1760" y="840" />
              <mxPoint x="1760" y="775" />
            </Array>
          </mxGeometry>
        </mxCell>
        <mxCell id="5A0LNB3ysfZ-3Xa6dR4r-25" value="" style="endArrow=classic;html=1;rounded=0;exitX=1;exitY=0.5;exitDx=0;exitDy=0;entryX=0;entryY=0.5;entryDx=0;entryDy=0;" edge="1" parent="1" source="H-hbhCYi5M6MQTkAYYM1-90" target="5A0LNB3ysfZ-3Xa6dR4r-16">
          <mxGeometry width="50" height="50" relative="1" as="geometry">
            <mxPoint x="1690" y="820" as="sourcePoint" />
            <mxPoint x="1740" y="770" as="targetPoint" />
          </mxGeometry>
        </mxCell>
        <mxCell id="5A0LNB3ysfZ-3Xa6dR4r-26" value="" style="endArrow=classic;html=1;rounded=0;exitX=1;exitY=0.5;exitDx=0;exitDy=0;entryX=0;entryY=0.5;entryDx=0;entryDy=0;" edge="1" parent="1" source="5A0LNB3ysfZ-3Xa6dR4r-16" target="5A0LNB3ysfZ-3Xa6dR4r-14">
          <mxGeometry width="50" height="50" relative="1" as="geometry">
            <mxPoint x="1690" y="820" as="sourcePoint" />
            <mxPoint x="1740" y="770" as="targetPoint" />
          </mxGeometry>
        </mxCell>
        <mxCell id="5A0LNB3ysfZ-3Xa6dR4r-27" value="Conversation&lt;br&gt;Interface" style="text;html=1;align=center;verticalAlign=middle;resizable=0;points=[];autosize=1;strokeColor=none;fillColor=none;" vertex="1" parent="1">
          <mxGeometry x="1450" y="800" width="90" height="40" as="geometry" />
        </mxCell>
        <mxCell id="5A0LNB3ysfZ-3Xa6dR4r-28" value="Conversation&lt;br&gt;Interface" style="text;html=1;align=center;verticalAlign=middle;resizable=0;points=[];autosize=1;strokeColor=none;fillColor=none;" vertex="1" parent="1">
          <mxGeometry x="1450" y="935" width="90" height="40" as="geometry" />
        </mxCell>
        <mxCell id="5A0LNB3ysfZ-3Xa6dR4r-29" value="&lt;div&gt;Send message&lt;/div&gt;&lt;div&gt;to database&lt;/div&gt;" style="html=1;fillColor=#99CCFF;" vertex="1" parent="1">
          <mxGeometry x="1141" y="534" width="110" height="50" as="geometry" />
        </mxCell>
        <mxCell id="5A0LNB3ysfZ-3Xa6dR4r-30" value="" style="endArrow=classic;html=1;rounded=0;exitX=0;exitY=0.5;exitDx=0;exitDy=0;entryX=1;entryY=0.5;entryDx=0;entryDy=0;" edge="1" parent="1" source="H-hbhCYi5M6MQTkAYYM1-60" target="H-hbhCYi5M6MQTkAYYM1-63">
          <mxGeometry width="50" height="50" relative="1" as="geometry">
            <mxPoint x="1690" y="510" as="sourcePoint" />
            <mxPoint x="1740" y="460" as="targetPoint" />
            <Array as="points">
              <mxPoint x="1300" y="559" />
              <mxPoint x="1300" y="625" />
            </Array>
          </mxGeometry>
        </mxCell>
        <mxCell id="5A0LNB3ysfZ-3Xa6dR4r-31" value="" style="endArrow=classic;html=1;rounded=0;exitX=0;exitY=0.5;exitDx=0;exitDy=0;entryX=1;entryY=0.5;entryDx=0;entryDy=0;" edge="1" parent="1" source="H-hbhCYi5M6MQTkAYYM1-61" target="H-hbhCYi5M6MQTkAYYM1-63">
          <mxGeometry width="50" height="50" relative="1" as="geometry">
            <mxPoint x="1690" y="510" as="sourcePoint" />
            <mxPoint x="1740" y="460" as="targetPoint" />
          </mxGeometry>
        </mxCell>
        <mxCell id="5A0LNB3ysfZ-3Xa6dR4r-32" value="" style="endArrow=classic;html=1;rounded=0;exitX=0;exitY=0.25;exitDx=0;exitDy=0;entryX=1;entryY=0.25;entryDx=0;entryDy=0;" edge="1" parent="1" source="H-hbhCYi5M6MQTkAYYM1-60" target="5A0LNB3ysfZ-3Xa6dR4r-29">
          <mxGeometry width="50" height="50" relative="1" as="geometry">
            <mxPoint x="1690" y="510" as="sourcePoint" />
            <mxPoint x="1740" y="460" as="targetPoint" />
          </mxGeometry>
        </mxCell>
        <mxCell id="5A0LNB3ysfZ-3Xa6dR4r-33" value="" style="endArrow=classic;html=1;rounded=0;exitX=0;exitY=0.5;exitDx=0;exitDy=0;entryX=0;entryY=0.75;entryDx=0;entryDy=0;" edge="1" parent="1" source="5A0LNB3ysfZ-3Xa6dR4r-29" target="x5k6ogktIe7jjmOTtnob-6">
          <mxGeometry width="50" height="50" relative="1" as="geometry">
            <mxPoint x="1690" y="410" as="sourcePoint" />
            <mxPoint x="1740" y="360" as="targetPoint" />
            <Array as="points">
              <mxPoint x="1110" y="559" />
              <mxPoint x="1110" y="470" />
              <mxPoint x="1570" y="470" />
              <mxPoint x="1570" y="220" />
            </Array>
          </mxGeometry>
        </mxCell>
      </root>
    </mxGraphModel>
  </diagram>
</mxfile>
